# xmcd
#
# Track frame offsets:
#	150
#	12791
#	24841
#	37228
#	49306
#	60926
#	72569
#	85148
#	96903
#	110447
#	123112
#	136190
#	147266
#	159378
#	171696
#	183701
#	195947
#	208515
#	220944
#	232511
#	244386
#	256742
#	268197
#	280936
#	292583
#
# Disc length: 4067 seconds
#
# Revision: 1
# Processed by: cddbd v1.4PL0 Copyright (c) Steve Scherf et al.
# Submitted via: CDmax 2.0
#
DISCID=640fe119
DTITLE=Lightnin' Hopkins - Classic Sides 1946-1951
DYEAR=2002
DGENRE=Blues
TTITLE0=Morning Blues
TTITLE1=Have To Let You Go
TTITLE2=Baby Child
TTITLE3=Mistreater Blues
TTITLE4=My California
TTITLE5=Honey Honey Blues
TTITLE6=So Long
TTITLE7=See See Rider
TTITLE8=Changing Weather Blues
TTITLE9=I Just Don't Care
TTITLE10=Whiskey Headed Woman
TTITLE11=Abilene
TTITLE12=Shotgun
TTITLE13=Rollin' Blues
TTITLE14=Tell It Like It Is
TTITLE15=Miss Loretta
TTITLE16=Shining Moon
TTITLE17=Ida Mae
TTITLE18=Mercy
TTITLE19=What Can It Be
TTITLE20=Lonesome Home
TTITLE21=Appetite Blues
TTITLE22=Walking Blues
TTITLE23=Lightning Blues
TTITLE24=No Mail Blues
EXTD=
EXTT0=
EXTT1=
EXTT2=
EXTT3=
EXTT4=
EXTT5=
EXTT6=
EXTT7=
EXTT8=
EXTT9=
EXTT10=
EXTT11=
EXTT12=
EXTT13=
EXTT14=
EXTT15=
EXTT16=
EXTT17=
EXTT18=
EXTT19=
EXTT20=
EXTT21=
EXTT22=
EXTT23=
EXTT24=
PLAYORDER=
